<svg xmlns="http://www.w3.org/2000/svg" xmlns:xlink="http://www.w3.org/1999/xlink" width="500" zoomAndPan="magnify" viewBox="0 0 375 374.999991" height="500" preserveAspectRatio="xMidYMid meet" version="1.0"><defs><clipPath id="98ec5eeb77"><path d="M 29.816406 154.894531 L 79 154.894531 L 79 168.300781 L 29.816406 168.300781 Z M 29.816406 154.894531 " clip-rule="nonzero"/></clipPath><clipPath id="3cf8dd59cb"><path d="M 66.453125 154.894531 C 64.050781 154.894531 61.648438 154.949219 59.253906 154.949219 L 36.589844 155.003906 C 32.726562 155.089844 29.835938 158.125 29.816406 161.589844 L 29.816406 161.675781 C 29.816406 161.773438 29.816406 161.863281 29.820312 161.960938 C 30.023438 165.773438 32.546875 168.148438 36.722656 168.203125 L 53.8125 168.226562 C 57.171875 168.226562 60.53125 168.296875 63.882812 168.296875 C 66.570312 168.296875 69.261719 168.253906 71.933594 168.105469 C 73.730469 168.007812 76.015625 166.816406 77.074219 165.382812 C 80.308594 161.019531 77.171875 155.332031 71.460938 155.011719 C 69.792969 154.921875 68.128906 154.894531 66.453125 154.894531 Z M 66.453125 154.894531 " clip-rule="nonzero"/></clipPath><clipPath id="b3ca545fc5"><path d="M 138 323.214844 L 236 323.214844 L 236 339.355469 L 138 339.355469 Z M 138 323.214844 " clip-rule="nonzero"/></clipPath><clipPath id="b492b95efb"><path d="M 187.113281 323.21875 L 226.890625 323.226562 C 232.128906 323.234375 235.457031 326.246094 235.675781 331.027344 C 235.863281 335.273438 231.996094 339.039062 227.035156 339.277344 L 218.660156 339.332031 C 195.515625 339.324219 172.378906 339.324219 149.234375 339.285156 C 147.507812 339.285156 145.734375 339.171875 144.070312 338.761719 C 140.203125 337.796875 137.679688 334.179688 138.058594 330.492188 C 138.511719 326.152344 141.5 323.277344 145.949219 323.261719 L 187.113281 323.234375 Z M 187.113281 323.21875 " clip-rule="nonzero"/></clipPath><clipPath id="468de4d8cc"><path d="M 159.226562 351.230469 L 214.441406 351.230469 L 214.441406 367.242188 L 159.226562 367.242188 Z M 159.226562 351.230469 " clip-rule="nonzero"/></clipPath><clipPath id="caed1a5460"><path d="M 187.21875 351.25 L 206.054688 351.265625 C 211.039062 351.3125 214.210938 354.441406 214.226562 359.175781 C 214.238281 364.066406 211.332031 367.167969 206.1875 367.214844 L 167.820312 367.214844 C 162.394531 367.160156 159.378906 364.023438 159.441406 359.101562 C 159.511719 354.097656 162.492188 351.320312 168.03125 351.265625 L 187.21875 351.25 " clip-rule="nonzero"/></clipPath><clipPath id="ae80da8162"><path d="M 173 86 L 291 86 L 291 295 L 173 295 Z M 173 86 " clip-rule="nonzero"/></clipPath><clipPath id="6cc56133f3"><path d="M 243.429688 195.664062 C 243.382812 162 221.703125 137.839844 193.394531 134.523438 C 185.515625 133.601562 180.148438 128.335938 179.984375 121.378906 C 179.816406 113.90625 184.414062 108.457031 192.65625 107.355469 C 200.570312 106.300781 205.945312 102.367188 209.152344 95.167969 C 209.808594 93.6875 210.589844 92.234375 211.519531 90.914062 C 214.460938 86.730469 218.335938 85.605469 223.035156 87.503906 C 226.585938 88.945312 230.160156 90.328125 233.609375 91.980469 C 238.8125 94.484375 239.953125 97.730469 238.738281 103.386719 C 237.683594 108.296875 237.214844 113.339844 236.503906 118.320312 L 236.507812 119.054688 C 241.683594 128.839844 248.375 136.785156 258.859375 140.179688 C 261.855469 141.152344 265.667969 139.777344 269.070312 139.25 C 271.003906 138.953125 272.847656 138.121094 274.761719 137.679688 C 279.519531 136.597656 282.640625 137.960938 284.796875 142.394531 C 286.726562 146.347656 288.421875 150.425781 289.996094 154.539062 C 291.550781 158.617188 290.457031 162.042969 286.824219 164.582031 C 284.644531 166.113281 282.257812 167.347656 279.9375 168.675781 C 273.929688 172.105469 270.363281 176.980469 270.515625 184.175781 C 270.621094 189.175781 270.410156 194.195312 270.738281 199.183594 C 271.074219 204.316406 274.105469 207.992188 278.304688 210.6875 L 285.851562 215.023438 C 290.777344 218.054688 292.011719 221.441406 290.042969 226.855469 L 285.816406 237.148438 C 283.339844 242.535156 279.65625 244.085938 273.859375 242.617188 C 270.167969 241.683594 266.457031 240.691406 262.6875 240.230469 C 258.417969 239.707031 254.6875 241.4375 251.617188 244.378906 C 248.171875 247.683594 244.738281 251.007812 241.503906 254.511719 C 237.074219 259.3125 235.53125 264.847656 237.773438 271.226562 L 239.6875 277.910156 C 240.972656 283.140625 239.589844 286.492188 234.785156 288.867188 C 230.949219 290.769531 226.976562 292.457031 222.945312 293.882812 C 218.457031 295.476562 215.054688 294.164062 212.433594 290.132812 L 207.824219 282.34375 C 204.417969 277.105469 199.640625 274.367188 193.25 274.347656 C 189.695312 274.339844 185.886719 274.507812 182.632812 273.363281 C 175.480469 270.84375 172.210938 264.339844 173.679688 257.25 C 174.910156 251.3125 180.664062 246.699219 187.632812 246.921875 C 199.941406 247.320312 210.792969 243.429688 220.433594 236.207031 C 235.65625 224.789062 243.144531 209.296875 243.402344 195.675781 " clip-rule="nonzero"/></clipPath><clipPath id="f4b977c807"><path d="M 96 78.203125 L 194 78.203125 L 194 309.972656 L 96 309.972656 Z M 96 78.203125 " clip-rule="nonzero"/></clipPath><clipPath id="ff319fc23b"><path d="M 170.132812 308.789062 C 164.207031 308.789062 158.230469 309.277344 152.371094 308.675781 C 143.429688 307.753906 136.402344 301.132812 135.46875 292.226562 C 133.695312 275.347656 127.839844 259.742188 121.421875 244.324219 C 116.570312 232.660156 111.203125 221.191406 105.5625 209.882812 C 97.863281 194.46875 95.226562 178.355469 96.613281 161.253906 C 99.730469 122.71875 129.007812 89.71875 166.121094 81.21875 C 172.085938 79.851562 178.296875 79.464844 184.421875 78.949219 C 187.996094 78.648438 191.078125 80.023438 192.746094 83.503906 C 194.179688 86.484375 194.101562 89.707031 191.796875 91.925781 C 190.140625 93.519531 187.453125 94.742188 185.152344 94.859375 C 169.398438 95.648438 155.058594 100.273438 142.5 109.9375 C 127.792969 121.261719 117.9375 135.835938 113.9375 154.042969 C 110.25 170.828125 111.945312 187.074219 119.976562 202.445312 C 131.605469 224.710938 141.355469 247.746094 148.160156 271.960938 C 149.597656 277.070312 150.335938 282.402344 151.128906 287.667969 C 151.742188 291.789062 152.902344 293.148438 157.1875 293.175781 L 184.769531 293.226562 C 190.097656 293.246094 193.667969 296.535156 193.648438 301.292969 C 193.625 305.734375 189.902344 309.144531 184.796875 309.234375 L 170.132812 309.253906 Z M 170.132812 308.789062 " clip-rule="nonzero"/></clipPath><clipPath id="8772f516c1"><path d="M 146 148 L 230 148 L 230 233 L 146 233 Z M 146 148 " clip-rule="nonzero"/></clipPath><clipPath id="126c5a01c4"><path d="M 210.738281 190.390625 C 210.785156 177.886719 200.414062 167.511719 187.953125 167.609375 C 175.480469 167.707031 165.117188 178.042969 165.1875 190.535156 C 165.257812 202.453125 174.308594 213.632812 188.296875 213.410156 C 203.417969 213.164062 211.316406 200.875 210.738281 190.390625 M 219.542969 170.261719 C 219.691406 170.234375 220.472656 169.996094 221.269531 169.941406 C 222.996094 169.828125 225.761719 169.144531 226.25 169.890625 C 227.820312 172.316406 228.828125 175.226562 229.433594 178.085938 C 229.59375 178.851562 227.703125 180.292969 226.523438 181.082031 C 221.855469 184.179688 219.761719 190.222656 222.246094 195.265625 C 223.132812 197.058594 225.132812 198.457031 226.878906 199.652344 C 230.078125 201.835938 230.460938 203.058594 228.707031 207.339844 C 227.519531 210.246094 226.207031 212.675781 222.308594 211.050781 C 215.046875 208.019531 205.375 217.878906 209.003906 224.957031 C 210.296875 227.46875 209.179688 229.273438 206.546875 230.460938 C 200.324219 233.265625 200.359375 233.351562 196.683594 227.652344 C 193.09375 222.078125 183.078125 222.449219 179.488281 228.292969 C 176.480469 233.191406 176.207031 233.273438 170.921875 231.074219 C 166.820312 229.363281 166.269531 228.574219 167.664062 224.171875 C 169.179688 219.382812 166.652344 216.519531 163.578125 213.59375 C 160.785156 210.929688 157.859375 209.773438 154.128906 211.488281 C 151.476562 212.710938 149.5 212.046875 148.164062 209.246094 C 145.75 204.171875 145.804688 202.425781 148.828125 200.417969 C 154.285156 196.796875 155.519531 193.527344 154.296875 187.253906 C 153.683594 184.078125 151.582031 182.601562 149.023438 181.269531 C 145.917969 179.640625 145.59375 178.175781 147.207031 174.003906 C 148.886719 169.667969 149.875 169.019531 153.4375 169.90625 C 159.394531 171.394531 166.289062 167.609375 167.761719 161.734375 C 168.148438 160.203125 167.589844 158.296875 167.058594 156.699219 C 166.039062 153.597656 166.617188 151.480469 169.941406 150.46875 L 172.820312 149.226562 C 175.144531 148.121094 176.703125 148.8125 178.03125 151 C 181.667969 156.992188 185.085938 158.625 191.636719 156.742188 C 193.660156 156.160156 195.519531 153.988281 196.824219 152.109375 C 199.542969 148.207031 200.4375 147.792969 205.101562 149.917969 C 209.136719 151.753906 209.71875 153.046875 208.390625 157.234375 C 206.625 162.824219 212.757812 170.464844 219.523438 170.253906 " clip-rule="nonzero"/></clipPath><clipPath id="31b16041fa"><path d="M 73 48 L 112.234375 48 L 112.234375 87 L 73 87 Z M 73 48 " clip-rule="nonzero"/></clipPath><clipPath id="891169b0f5"><path d="M 112.175781 79.683594 C 112.078125 85.046875 106.273438 88.449219 102.488281 86.242188 L 99.730469 84.132812 C 91.957031 76.449219 84.167969 68.78125 76.5 60.992188 C 72.546875 56.96875 73.121094 52.125 77.539062 49.582031 C 80.257812 48.015625 82.8125 48.441406 84.894531 50.488281 L 110.277344 75.910156 C 111.402344 77.0625 111.796875 78.921875 112.167969 79.691406 " clip-rule="nonzero"/></clipPath><clipPath id="da9129d800"><path d="M 261 48 L 300 48 L 300 87.976562 L 261 87.976562 Z M 261 48 " clip-rule="nonzero"/></clipPath><clipPath id="5e9ed31e95"><path d="M 267.679688 87.902344 C 265.632812 85.988281 263.148438 84.628906 262.289062 82.574219 C 261.570312 80.847656 262.007812 77.714844 263.21875 76.28125 C 267.105469 71.671875 271.578125 67.550781 275.851562 63.269531 L 287.773438 51.488281 C 291.601562 47.898438 294.875 47.792969 297.816406 50.84375 C 300.640625 53.773438 300.476562 57.621094 297.097656 61.054688 L 274.328125 83.71875 C 272.660156 85.332031 270.328125 86.269531 267.679688 87.902344 " clip-rule="nonzero"/></clipPath><clipPath id="fd6f070e5e"><path d="M 295.078125 154.296875 L 344 154.296875 L 344 168.257812 L 295.078125 168.257812 Z M 295.078125 154.296875 " clip-rule="nonzero"/></clipPath><clipPath id="cd4713d90d"><path d="M 309.089844 154.929688 C 308.0625 154.929688 307.042969 154.929688 306.015625 154.929688 L 301.492188 155.035156 C 297.796875 155.496094 295.15625 158.488281 295.324219 161.859375 C 295.519531 165.644531 298.117188 168.179688 302.085938 168.222656 L 319.167969 168.242188 L 337.300781 168.222656 C 340.964844 168.171875 343.5 165.800781 343.886719 162.355469 C 344.234375 159.253906 341.8125 156.035156 338.410156 155.292969 C 337.0625 155 335.644531 154.964844 334.261719 154.964844 C 325.871094 154.9375 317.476562 154.929688 309.082031 154.929688 Z M 309.089844 154.929688 " clip-rule="nonzero"/></clipPath><clipPath id="6fd6854052"><path d="M 180 11.1875 L 193.886719 11.1875 L 193.886719 59.355469 L 180 59.355469 Z M 180 11.1875 " clip-rule="nonzero"/></clipPath><clipPath id="db088340ae"><path d="M 187.25 11.1875 C 185.636719 11.195312 183.871094 11.65625 182.703125 12.445312 C 181.222656 13.445312 180.238281 16.167969 180.1875 18.160156 C 179.9375 29.296875 180.027344 40.453125 180.019531 51.597656 L 180.285156 53.3125 C 181.125 57.144531 183.429688 59.234375 186.761719 59.234375 C 187.019531 59.234375 187.285156 59.21875 187.558594 59.199219 C 190.980469 58.878906 193.226562 56.179688 193.261719 52.179688 L 193.277344 35.808594 L 193.320312 35.808594 C 193.320312 29.425781 193.597656 23.027344 193.144531 16.671875 C 193.011719 14.800781 191.132812 12.171875 189.4375 11.539062 C 188.8125 11.300781 188.066406 11.195312 187.292969 11.1875 Z M 187.25 11.1875 " clip-rule="nonzero"/></clipPath></defs><g clip-path="url(#98ec5eeb77)"><g clip-path="url(#3cf8dd59cb)"><path fill="#ffffff" d="M 29.816406 154.894531 L 78.378906 154.894531 L 78.378906 168.300781 L 29.816406 168.300781 Z M 29.816406 154.894531 " fill-opacity="1" fill-rule="nonzero"/></g></g><g clip-path="url(#b3ca545fc5)"><g clip-path="url(#b492b95efb)"><path fill="#ffffff" d="M 138.023438 323.214844 L 235.683594 323.214844 L 235.683594 339.355469 L 138.023438 339.355469 Z M 138.023438 323.214844 " fill-opacity="1" fill-rule="nonzero"/></g></g><g clip-path="url(#468de4d8cc)"><g clip-path="url(#caed1a5460)"><path fill="#ffffff" d="M 159.441406 351.230469 L 214.230469 351.230469 L 214.230469 367.304688 L 159.441406 367.304688 Z M 159.441406 351.230469 " fill-opacity="1" fill-rule="nonzero"/></g></g><g clip-path="url(#ae80da8162)"><g clip-path="url(#6cc56133f3)"><path fill="#01fefd" d="M 70.359375 7.695312 L 347.417969 7.695312 L 347.417969 312.765625 L 70.359375 312.765625 Z M 70.359375 7.695312 " fill-opacity="1" fill-rule="nonzero"/></g></g><g clip-path="url(#f4b977c807)"><g clip-path="url(#ff319fc23b)"><path fill="#01fefd" d="M 70.359375 7.695312 L 347.417969 7.695312 L 347.417969 312.765625 L 70.359375 312.765625 Z M 70.359375 7.695312 " fill-opacity="1" fill-rule="nonzero"/></g></g><g clip-path="url(#8772f516c1)"><g clip-path="url(#126c5a01c4)"><path fill="#ffffff" d="M 70.359375 7.695312 L 347.417969 7.695312 L 347.417969 312.765625 L 70.359375 312.765625 Z M 70.359375 7.695312 " fill-opacity="1" fill-rule="nonzero"/></g></g><g clip-path="url(#31b16041fa)"><g clip-path="url(#891169b0f5)"><path fill="#ffffff" d="M 70.359375 7.695312 L 347.417969 7.695312 L 347.417969 312.765625 L 70.359375 312.765625 Z M 70.359375 7.695312 " fill-opacity="1" fill-rule="nonzero"/></g></g><g clip-path="url(#da9129d800)"><g clip-path="url(#5e9ed31e95)"><path fill="#ffffff" d="M 70.359375 7.695312 L 347.417969 7.695312 L 347.417969 312.765625 L 70.359375 312.765625 Z M 70.359375 7.695312 " fill-opacity="1" fill-rule="nonzero"/></g></g><g clip-path="url(#fd6f070e5e)"><g clip-path="url(#cd4713d90d)"><path fill="#ffffff" d="M 70.359375 7.695312 L 347.417969 7.695312 L 347.417969 312.765625 L 70.359375 312.765625 Z M 70.359375 7.695312 " fill-opacity="1" fill-rule="nonzero"/></g></g><g clip-path="url(#6fd6854052)"><g clip-path="url(#db088340ae)"><path fill="#ffffff" d="M 70.359375 7.695312 L 347.417969 7.695312 L 347.417969 312.765625 L 70.359375 312.765625 Z M 70.359375 7.695312 " fill-opacity="1" fill-rule="nonzero"/></g></g></svg>